<svg xmlns="http://www.w3.org/2000/svg" width="175" height="175" viewBox="0 0 175 175">
  <defs>
    <style>
      .cls-1 {
        fill-rule: evenodd;
        opacity: 0.5;
      }
    </style>
  </defs>
  <path id="dot_shape" class="cls-1" d="M676,1306.01a1.018,1.018,0,1,1-1.018-1.01A1.015,1.015,0,0,1,676,1306.01Zm-19.218,0a1.018,1.018,0,1,1-1.018-1.01A1.015,1.015,0,0,1,656.782,1306.01Zm-19.219,0a1.018,1.018,0,1,1-1.017-1.01A1.014,1.014,0,0,1,637.563,1306.01Zm-19.218,0a1.018,1.018,0,1,1-1.018-1.01A1.015,1.015,0,0,1,618.345,1306.01Zm-19.218,0a1.018,1.018,0,1,1-1.018-1.01A1.015,1.015,0,0,1,599.127,1306.01Zm-19.219,0a1.018,1.018,0,1,1-1.017-1.01A1.014,1.014,0,0,1,579.908,1306.01Zm-19.218,0a1.018,1.018,0,1,1-1.017-1.01A1.014,1.014,0,0,1,560.69,1306.01Zm-19.218,0a1.018,1.018,0,1,1-1.018-1.01A1.015,1.015,0,0,1,541.472,1306.01Zm-19.218,0a1.018,1.018,0,1,1-1.018-1.01A1.015,1.015,0,0,1,522.254,1306.01Zm-19.219,0a1.018,1.018,0,1,1-1.017-1.01A1.014,1.014,0,0,1,503.035,1306.01ZM676,1325.23a1.018,1.018,0,1,1-1.018-1.01A1.021,1.021,0,0,1,676,1325.23Zm-19.218,0a1.018,1.018,0,1,1-1.018-1.01A1.021,1.021,0,0,1,656.782,1325.23Zm-19.219,0a1.018,1.018,0,1,1-1.017-1.01A1.02,1.02,0,0,1,637.563,1325.23Zm-19.218,0a1.018,1.018,0,1,1-1.018-1.01A1.021,1.021,0,0,1,618.345,1325.23Zm-19.218,0a1.018,1.018,0,1,1-1.018-1.01A1.021,1.021,0,0,1,599.127,1325.23Zm-19.219,0a1.018,1.018,0,1,1-1.017-1.01A1.02,1.02,0,0,1,579.908,1325.23Zm-19.218,0a1.018,1.018,0,1,1-1.017-1.01A1.02,1.02,0,0,1,560.69,1325.23Zm-19.218,0a1.018,1.018,0,1,1-1.018-1.01A1.021,1.021,0,0,1,541.472,1325.23Zm-19.218,0a1.018,1.018,0,1,1-1.018-1.01A1.021,1.021,0,0,1,522.254,1325.23Zm-19.219,0a1.018,1.018,0,1,1-1.017-1.01A1.02,1.02,0,0,1,503.035,1325.23ZM676,1344.45a1.018,1.018,0,1,1-1.018-1.01A1.021,1.021,0,0,1,676,1344.45Zm-19.218,0a1.018,1.018,0,1,1-1.018-1.01A1.021,1.021,0,0,1,656.782,1344.45Zm-19.219,0a1.018,1.018,0,1,1-1.017-1.01A1.02,1.02,0,0,1,637.563,1344.45Zm-19.218,0a1.018,1.018,0,1,1-1.018-1.01A1.021,1.021,0,0,1,618.345,1344.45Zm-19.218,0a1.018,1.018,0,1,1-1.018-1.01A1.021,1.021,0,0,1,599.127,1344.45Zm-19.219,0a1.018,1.018,0,1,1-1.017-1.01A1.02,1.02,0,0,1,579.908,1344.45Zm-19.218,0a1.018,1.018,0,1,1-1.017-1.01A1.02,1.02,0,0,1,560.69,1344.45Zm-19.218,0a1.018,1.018,0,1,1-1.018-1.01A1.021,1.021,0,0,1,541.472,1344.45Zm-19.218,0a1.018,1.018,0,1,1-1.018-1.01A1.021,1.021,0,0,1,522.254,1344.45Zm-19.219,0a1.018,1.018,0,1,1-1.017-1.01A1.02,1.02,0,0,1,503.035,1344.45ZM676,1363.67a1.018,1.018,0,1,1-1.018-1.02A1.021,1.021,0,0,1,676,1363.67Zm-19.218,0a1.018,1.018,0,1,1-1.018-1.02A1.021,1.021,0,0,1,656.782,1363.67Zm-19.219,0a1.018,1.018,0,1,1-1.017-1.02A1.02,1.02,0,0,1,637.563,1363.67Zm-19.218,0a1.018,1.018,0,1,1-1.018-1.02A1.021,1.021,0,0,1,618.345,1363.67Zm-19.218,0a1.018,1.018,0,1,1-1.018-1.02A1.021,1.021,0,0,1,599.127,1363.67Zm-19.219,0a1.018,1.018,0,1,1-1.017-1.02A1.02,1.02,0,0,1,579.908,1363.67Zm-19.218,0a1.018,1.018,0,1,1-1.017-1.02A1.02,1.02,0,0,1,560.69,1363.67Zm-19.218,0a1.018,1.018,0,1,1-1.018-1.02A1.021,1.021,0,0,1,541.472,1363.67Zm-19.218,0a1.018,1.018,0,1,1-1.018-1.02A1.021,1.021,0,0,1,522.254,1363.67Zm-19.219,0a1.018,1.018,0,1,1-1.017-1.02A1.02,1.02,0,0,1,503.035,1363.67ZM676,1382.89a1.018,1.018,0,1,1-1.018-1.02A1.021,1.021,0,0,1,676,1382.89Zm-19.218,0a1.018,1.018,0,1,1-1.018-1.02A1.021,1.021,0,0,1,656.782,1382.89Zm-19.219,0a1.018,1.018,0,1,1-1.017-1.02A1.02,1.02,0,0,1,637.563,1382.89Zm-19.218,0a1.018,1.018,0,1,1-1.018-1.02A1.021,1.021,0,0,1,618.345,1382.89Zm-19.218,0a1.018,1.018,0,1,1-1.018-1.02A1.021,1.021,0,0,1,599.127,1382.89Zm-19.219,0a1.018,1.018,0,1,1-1.017-1.02A1.02,1.02,0,0,1,579.908,1382.89Zm-19.218,0a1.018,1.018,0,1,1-1.017-1.02A1.02,1.02,0,0,1,560.69,1382.89Zm-19.218,0a1.018,1.018,0,1,1-1.018-1.02A1.021,1.021,0,0,1,541.472,1382.89Zm-19.218,0a1.018,1.018,0,1,1-1.018-1.02A1.021,1.021,0,0,1,522.254,1382.89Zm-19.219,0a1.018,1.018,0,1,1-1.017-1.02A1.02,1.02,0,0,1,503.035,1382.89ZM676,1402.11a1.018,1.018,0,1,1-1.018-1.02A1.021,1.021,0,0,1,676,1402.11Zm-19.218,0a1.018,1.018,0,1,1-1.018-1.02A1.021,1.021,0,0,1,656.782,1402.11Zm-19.219,0a1.018,1.018,0,1,1-1.017-1.02A1.02,1.02,0,0,1,637.563,1402.11Zm-19.218,0a1.018,1.018,0,1,1-1.018-1.02A1.021,1.021,0,0,1,618.345,1402.11Zm-19.218,0a1.018,1.018,0,1,1-1.018-1.02A1.021,1.021,0,0,1,599.127,1402.11Zm-19.219,0a1.018,1.018,0,1,1-1.017-1.02A1.02,1.02,0,0,1,579.908,1402.11Zm-19.218,0a1.018,1.018,0,1,1-1.017-1.02A1.02,1.02,0,0,1,560.69,1402.11Zm-19.218,0a1.018,1.018,0,1,1-1.018-1.02A1.021,1.021,0,0,1,541.472,1402.11Zm-19.218,0a1.018,1.018,0,1,1-1.018-1.02A1.021,1.021,0,0,1,522.254,1402.11Zm-19.219,0a1.018,1.018,0,1,1-1.017-1.02A1.02,1.02,0,0,1,503.035,1402.11ZM676,1421.33a1.018,1.018,0,1,1-1.018-1.02A1.013,1.013,0,0,1,676,1421.33Zm-19.218,0a1.018,1.018,0,1,1-1.018-1.02A1.013,1.013,0,0,1,656.782,1421.33Zm-19.219,0a1.018,1.018,0,1,1-1.017-1.02A1.012,1.012,0,0,1,637.563,1421.33Zm-19.218,0a1.018,1.018,0,1,1-1.018-1.02A1.013,1.013,0,0,1,618.345,1421.33Zm-19.218,0a1.018,1.018,0,1,1-1.018-1.02A1.013,1.013,0,0,1,599.127,1421.33Zm-19.219,0a1.018,1.018,0,1,1-1.017-1.02A1.012,1.012,0,0,1,579.908,1421.33Zm-19.218,0a1.018,1.018,0,1,1-1.017-1.02A1.012,1.012,0,0,1,560.69,1421.33Zm-19.218,0a1.018,1.018,0,1,1-1.018-1.02A1.013,1.013,0,0,1,541.472,1421.33Zm-19.218,0a1.018,1.018,0,1,1-1.018-1.02A1.013,1.013,0,0,1,522.254,1421.33Zm-19.219,0a1.018,1.018,0,1,1-1.017-1.02A1.012,1.012,0,0,1,503.035,1421.33ZM676,1440.55a1.018,1.018,0,1,1-1.018-1.02A1.013,1.013,0,0,1,676,1440.55Zm-19.218,0a1.018,1.018,0,1,1-1.018-1.02A1.013,1.013,0,0,1,656.782,1440.55Zm-19.219,0a1.018,1.018,0,1,1-1.017-1.02A1.012,1.012,0,0,1,637.563,1440.55Zm-19.218,0a1.018,1.018,0,1,1-1.018-1.02A1.013,1.013,0,0,1,618.345,1440.55Zm-19.218,0a1.018,1.018,0,1,1-1.018-1.02A1.013,1.013,0,0,1,599.127,1440.55Zm-19.219,0a1.018,1.018,0,1,1-1.017-1.02A1.012,1.012,0,0,1,579.908,1440.55Zm-19.218,0a1.018,1.018,0,1,1-1.017-1.02A1.012,1.012,0,0,1,560.69,1440.55Zm-19.218,0a1.018,1.018,0,1,1-1.018-1.02A1.013,1.013,0,0,1,541.472,1440.55Zm-19.218,0a1.018,1.018,0,1,1-1.018-1.02A1.013,1.013,0,0,1,522.254,1440.55Zm-19.219,0a1.018,1.018,0,1,1-1.017-1.02A1.012,1.012,0,0,1,503.035,1440.55ZM676,1459.76a1.018,1.018,0,1,1-1.018-1.01A1.015,1.015,0,0,1,676,1459.76Zm-19.218,0a1.018,1.018,0,1,1-1.018-1.01A1.015,1.015,0,0,1,656.782,1459.76Zm-19.219,0a1.018,1.018,0,1,1-1.017-1.01A1.014,1.014,0,0,1,637.563,1459.76Zm-19.218,0a1.018,1.018,0,1,1-1.018-1.01A1.015,1.015,0,0,1,618.345,1459.76Zm-19.218,0a1.018,1.018,0,1,1-1.018-1.01A1.015,1.015,0,0,1,599.127,1459.76Zm-19.219,0a1.018,1.018,0,1,1-1.017-1.01A1.014,1.014,0,0,1,579.908,1459.76Zm-19.218,0a1.018,1.018,0,1,1-1.017-1.01A1.014,1.014,0,0,1,560.69,1459.76Zm-19.218,0a1.018,1.018,0,1,1-1.018-1.01A1.015,1.015,0,0,1,541.472,1459.76Zm-19.218,0a1.018,1.018,0,1,1-1.018-1.01A1.015,1.015,0,0,1,522.254,1459.76Zm-19.219,0a1.018,1.018,0,1,1-1.017-1.01A1.014,1.014,0,0,1,503.035,1459.76ZM676,1478.98a1.018,1.018,0,1,1-1.018-1.01A1.021,1.021,0,0,1,676,1478.98Zm-19.218,0a1.018,1.018,0,1,1-1.018-1.01A1.021,1.021,0,0,1,656.782,1478.98Zm-19.219,0a1.018,1.018,0,1,1-1.017-1.01A1.02,1.02,0,0,1,637.563,1478.98Zm-19.218,0a1.018,1.018,0,1,1-1.018-1.01A1.021,1.021,0,0,1,618.345,1478.98Zm-19.218,0a1.018,1.018,0,1,1-1.018-1.01A1.021,1.021,0,0,1,599.127,1478.98Zm-19.219,0a1.018,1.018,0,1,1-1.017-1.01A1.02,1.02,0,0,1,579.908,1478.98Zm-19.218,0a1.018,1.018,0,1,1-1.017-1.01A1.02,1.02,0,0,1,560.69,1478.98Zm-19.218,0a1.018,1.018,0,1,1-1.018-1.01A1.021,1.021,0,0,1,541.472,1478.98Zm-19.218,0a1.018,1.018,0,1,1-1.018-1.01A1.021,1.021,0,0,1,522.254,1478.98Zm-19.219,0a1.018,1.018,0,1,1-1.017-1.01A1.02,1.02,0,0,1,503.035,1478.98Z" transform="translate(-501 -1305)"/>
</svg>
